<?xml version="1.0" encoding="UTF-8"?>
<svg xmlns="http://www.w3.org/2000/svg" xmlns:xlink="http://www.w3.org/1999/xlink" width="32px" height="32px" viewBox="0 0 32 32" version="1.1">
<defs>
<linearGradient id="linear0" gradientUnits="userSpaceOnUse" x1="23.7288" y1="0.0000360806" x2="126.942" y2="12.7733" gradientTransform="matrix(0.266667,0,0,0.266667,0,0)">
<stop offset="0" style="stop-color:rgb(92.941176%,0.784314%,20%);stop-opacity:1;"/>
<stop offset="1" style="stop-color:rgb(0%,24.313725%,71.764706%);stop-opacity:1;"/>
</linearGradient>
</defs>
<g id="surface1">
<rect x="0" y="0" width="32" height="32" style="fill:rgb(11.764706%,11.764706%,11.764706%);fill-opacity:1;stroke:none;"/>
<path style=" stroke:none;fill-rule:nonzero;fill:rgb(91.764706%,91.764706%,91.764706%);fill-opacity:1;" d="M -18.667969 -81.066406 C -18.667969 -81.363281 -18.429688 -81.601562 -18.132812 -81.601562 L 121.066406 -81.601562 C 121.363281 -81.601562 121.601562 -81.363281 121.601562 -81.066406 L 121.601562 50.132812 C 121.601562 50.429688 121.363281 50.667969 121.066406 50.667969 L -18.132812 50.667969 C -18.429688 50.667969 -18.667969 50.429688 -18.667969 50.132812 Z M -18.667969 -81.066406 "/>
<rect x="0" y="0" width="32" height="32" style="fill:url(#linear0);stroke:none;"/>
<path style=" stroke:none;fill-rule:nonzero;fill:rgb(100%,100%,100%);fill-opacity:1;" d="M 15.851562 25.867188 C 14.78125 25.867188 13.851562 25.703125 13.0625 25.371094 C 12.273438 25.042969 11.671875 24.460938 11.257812 23.625 C 10.863281 22.792969 10.667969 21.617188 10.667969 20.101562 L 10.667969 18.980469 C 11.191406 18.980469 11.726562 18.980469 12.273438 18.980469 C 12.820312 18.980469 13.359375 18.980469 13.882812 18.980469 L 13.882812 20.363281 C 13.882812 21.289062 13.96875 22 14.144531 22.507812 C 14.320312 23.011719 14.5625 23.363281 14.867188 23.5625 C 15.175781 23.734375 15.523438 23.824219 15.917969 23.824219 C 16.550781 23.824219 17.054688 23.617188 17.425781 23.199219 C 17.820312 22.757812 18.019531 21.945312 18.019531 20.761719 C 18.019531 19.882812 17.886719 19.222656 17.625 18.785156 C 17.363281 18.34375 16.945312 17.992188 16.378906 17.730469 C 15.832031 17.445312 15.121094 17.125 14.242188 16.773438 C 13.523438 16.445312 12.898438 16.058594 12.375 15.621094 C 11.847656 15.183594 11.453125 14.621094 11.191406 13.941406 C 10.929688 13.261719 10.796875 12.414062 10.796875 11.40625 C 10.796875 10.175781 10.949219 9.175781 11.257812 8.40625 C 11.585938 7.617188 12.132812 7.042969 12.898438 6.695312 C 13.664062 6.320312 14.691406 6.132812 15.984375 6.132812 C 17.648438 6.132812 18.914062 6.519531 19.789062 7.285156 C 20.664062 8.03125 21.105469 9.132812 21.105469 10.582031 L 21.105469 12.855469 C 20.601562 12.855469 20.085938 12.855469 19.5625 12.855469 C 19.058594 12.855469 18.542969 12.855469 18.019531 12.855469 L 18.019531 11.503906 C 18.019531 10.492188 17.855469 9.769531 17.527344 9.328125 C 17.21875 8.867188 16.714844 8.636719 16.015625 8.636719 C 15.292969 8.636719 14.769531 8.855469 14.441406 9.296875 C 14.132812 9.714844 13.980469 10.382812 13.980469 11.304688 C 13.980469 12.097656 14.132812 12.710938 14.441406 13.148438 C 14.746094 13.566406 15.140625 13.898438 15.621094 14.136719 C 16.125 14.378906 16.640625 14.601562 17.164062 14.796875 C 18.148438 15.171875 18.949219 15.554688 19.5625 15.949219 C 20.171875 16.347656 20.621094 16.871094 20.90625 17.53125 C 21.191406 18.191406 21.332031 19.125 21.332031 20.332031 C 21.332031 21.714844 21.105469 22.8125 20.644531 23.625 C 20.207031 24.417969 19.570312 24.988281 18.742188 25.339844 C 17.929688 25.691406 16.96875 25.867188 15.851562 25.867188 Z M 15.851562 25.867188 "/>
</g>
</svg>
